<?xml version="1.0"?>
<svg xmlns="http://www.w3.org/2000/svg" xmlns:xlink="http://www.w3.org/1999/xlink" xmlns:svgjs="http://svgjs.com/svgjs" version="1.1" width="512" height="512" x="0" y="0" viewBox="0 0 512 512" style="enable-background:new 0 0 512 512" xml:space="preserve" class=""><g>
<g xmlns="http://www.w3.org/2000/svg">
	<path style="" d="M150.861,415.253H68.295c-9.161,0-16.588-7.427-16.588-16.588c0-9.161,7.427-16.588,16.588-16.588   h82.566c9.161,0,16.588,7.427,16.588,16.588C167.449,407.826,160.022,415.253,150.861,415.253z" fill="#a5f6ff" data-original="#a5f6ff" class=""/>
	<path style="" d="M293.6,474.4H18.299c-9.161,0-16.588-7.427-16.588-16.588c0-9.161,7.427-16.588,16.588-16.588H293.6   c9.161,0,16.588,7.427,16.588,16.588C310.188,466.972,302.762,474.4,293.6,474.4z" fill="#a5f6ff" data-original="#a5f6ff" class=""/>
	<path style="" d="M293.6,70.777H91.789c-9.161,0-16.588-7.427-16.588-16.588S82.628,37.6,91.789,37.6H293.6   c9.161,0,16.588,7.427,16.588,16.588S302.762,70.777,293.6,70.777z" fill="#a5f6ff" data-original="#a5f6ff" class=""/>
	<path style="" d="M136.908,145.414H16.588C7.427,145.414,0,137.987,0,128.826s7.427-16.588,16.588-16.588h120.319   c9.161,0,16.588,7.427,16.588,16.588S146.069,145.414,136.908,145.414z" fill="#a5f6ff" data-original="#a5f6ff" class=""/>
</g>
<path xmlns="http://www.w3.org/2000/svg" style="" d="M293.6,474.4c-120.425,0-218.399-97.974-218.399-218.4S173.174,37.6,293.6,37.6  s218.399,97.974,218.399,218.399S414.026,474.4,293.6,474.4z" fill="#a9a1a1" data-original="#444444" class=""/>
<circle xmlns="http://www.w3.org/2000/svg" style="" cx="293.604" cy="256.004" r="118.906" fill="#ffffff" data-original="#ffffff" class=""/>
<circle xmlns="http://www.w3.org/2000/svg" style="" cx="293.604" cy="256.004" r="41.634" fill="#fdfdfd" data-original="#ff5e8d" class=""/>
<path xmlns="http://www.w3.org/2000/svg" style="" d="M293.6,120.507c-74.711,0-135.493,60.782-135.493,135.493c0,44.553,21.619,84.15,54.915,108.86  c0.305,0.258,0.608,0.518,0.937,0.755c0.37,0.269,0.749,0.52,1.132,0.754c22.164,15.811,49.269,25.123,78.509,25.123  c29.24,0,56.344-9.312,78.509-25.123c0.384-0.234,0.762-0.485,1.132-0.754c0.328-0.239,0.632-0.499,0.937-0.755  c33.295-24.71,54.915-64.306,54.915-108.86C429.093,181.29,368.311,120.507,293.6,120.507z M384.478,209.03l-42.956,13.958  c-7.461-10.798-18.472-18.958-31.333-22.789v-45.163C342.56,160.336,369.869,180.877,384.478,209.03z M268.555,255.999  c0-13.81,11.235-25.045,25.045-25.045c13.81,0,25.045,11.235,25.045,25.045s-11.235,25.045-25.045,25.045  C279.789,281.045,268.555,269.811,268.555,255.999z M277.011,155.036v45.163c-12.863,3.831-23.872,11.99-31.334,22.789  l-42.955-13.958C217.332,180.877,244.641,160.336,277.011,155.036z M191.285,255.999c0-5.242,0.398-10.393,1.162-15.425  l42.968,13.962c-0.012,0.488-0.038,0.972-0.038,1.463c0,13.296,4.49,25.558,12.02,35.371l-26.53,36.516  C202.589,309.394,191.285,283.993,191.285,255.999z M293.6,358.316c-16.501,0-32.099-3.931-45.915-10.899l26.536-36.522  c6.066,2.148,12.586,3.329,19.379,3.329c6.792,0,13.313-1.181,19.379-3.329l26.536,36.522  C325.699,354.384,310.101,358.316,293.6,358.316z M366.332,327.886l-26.53-36.514c7.53-9.813,12.02-22.075,12.02-35.371  c0-0.491-0.024-0.975-0.038-1.463l42.968-13.962c0.764,5.032,1.162,10.183,1.162,15.425  C395.916,283.993,384.612,309.393,366.332,327.886z" fill="#ffa358" data-original="#ffa358" class=""/>
<path xmlns="http://www.w3.org/2000/svg" style="" d="M512,255.999C512,135.574,414.026,37.6,293.6,37.6V474.4C414.026,474.4,512,376.426,512,255.999z" fill="#8f8b8b" data-original="#282828" class=""/>
<path xmlns="http://www.w3.org/2000/svg" style="" d="M412.505,255.999c0-65.669-53.236-118.905-118.905-118.905v237.81  C359.269,374.904,412.505,321.669,412.505,255.999z" fill="#fdfdfd" data-original="#fff6a4" class=""/>
<path xmlns="http://www.w3.org/2000/svg" style="" d="M335.235,255.999c0-22.994-18.64-41.634-41.634-41.634v83.268  C316.594,297.634,335.235,278.993,335.235,255.999z" fill="#fffafd" data-original="#ff3da8" class=""/>
<path xmlns="http://www.w3.org/2000/svg" style="" d="M318.646,255.999c0,13.81-11.235,25.045-25.045,25.045v33.177c6.792,0,13.313-1.181,19.379-3.329  l26.536,36.522c-13.816,6.967-29.413,10.899-45.915,10.899v33.177c29.24,0,56.344-9.312,78.509-25.123  c0.384-0.234,0.762-0.485,1.132-0.754c0.328-0.239,0.631-0.499,0.937-0.755c33.295-24.71,54.915-64.306,54.915-108.86  c0-74.711-60.782-135.493-135.493-135.493v110.447C307.411,230.954,318.646,242.189,318.646,255.999z M394.754,240.574  c0.764,5.032,1.162,10.183,1.162,15.425c0,27.994-11.304,53.394-29.583,71.885l-26.53-36.514c7.53-9.813,12.02-22.075,12.02-35.371  c0-0.491-0.024-0.975-0.038-1.463L394.754,240.574z M310.188,155.036c32.371,5.301,59.68,25.841,74.29,53.993l-42.956,13.958  c-7.461-10.798-18.472-18.958-31.333-22.789V155.036z" fill="#ff8273" data-original="#ff8273" class=""/>
<g xmlns="http://www.w3.org/2000/svg">
</g>
<g xmlns="http://www.w3.org/2000/svg">
</g>
<g xmlns="http://www.w3.org/2000/svg">
</g>
<g xmlns="http://www.w3.org/2000/svg">
</g>
<g xmlns="http://www.w3.org/2000/svg">
</g>
<g xmlns="http://www.w3.org/2000/svg">
</g>
<g xmlns="http://www.w3.org/2000/svg">
</g>
<g xmlns="http://www.w3.org/2000/svg">
</g>
<g xmlns="http://www.w3.org/2000/svg">
</g>
<g xmlns="http://www.w3.org/2000/svg">
</g>
<g xmlns="http://www.w3.org/2000/svg">
</g>
<g xmlns="http://www.w3.org/2000/svg">
</g>
<g xmlns="http://www.w3.org/2000/svg">
</g>
<g xmlns="http://www.w3.org/2000/svg">
</g>
<g xmlns="http://www.w3.org/2000/svg">
</g>
</g></svg>
